<svg xmlns:xlink="http://www.w3.org/1999/xlink" xmlns="http://www.w3.org/2000/svg" width="32" height="32" viewBox="0 0 32 32" fill="currentColor"><path d="M25 4v3.86a3.95 3.95 0 0 1-1.22-.32 4.92 4.92 0 0 0-2.08-.42c-1.05 0-1.6.22-2.1.42-.45.18-.85.34-1.7.34-.86 0-1.26-.16-1.72-.34a4.91 4.91 0 0 0-2.09-.42 4.9 4.9 0 0 0-2.08.42 3.9 3.9 0 0 1-1.71.34c-.86 0-1.26-.16-1.72-.34-.4-.16-.86-.33-1.58-.4V4H6v24h20V4h-1ZM7 27V8.14c.53.05.85.18 1.21.32.49.2 1.04.42 2.09.42 1.04 0 1.6-.22 2.08-.42.46-.18.86-.34 1.71-.34.86 0 1.26.16 1.72.34.48.2 1.04.42 2.08.42 1.05 0 1.6-.22 2.09-.42.46-.18.86-.34 1.72-.34.85 0 1.25.16 1.71.34a5 5 0 0 0 1.59.4V27H7Z" fill="#17171A"></path></svg>