<svg xmlns:xlink="http://www.w3.org/1999/xlink" xmlns="http://www.w3.org/2000/svg" fill="none" viewBox="0 0 74 74" width="74" height="74">
  <g clip-path="url(#a)" fill="none">
    <path fill="#B19165" d="M74 0H0v74h74V0Z"></path>
    <path fill="#FFFFFF" fill-rule="evenodd" d="M23.62 16.34c4.372 3.561 8.782 10.636 12.078 14.888l.809 1.046.236.316c1.915 2.555 6.059 8.031 8.081 10.33a22.95 22.95 0 0 0 8.14 6.226 16.546 16.546 0 0 0 9.403.986v.277c-7.686 2.684-16.892.483-21.914-4.4-.77-.662-3.512-3.622-4.568-4.934-1.49-1.746-3.295-4.124-5.101-6.512l-.829-1.105c-.829-1.095-1.648-2.18-2.437-3.177v14.277h-3.947V16.339h.05Zm9.927-.691c.77.65 3.512 3.61 4.568 4.933 2.407 2.822 5.624 7.291 8.367 10.794V17.05h3.947v28.287c-4.371-3.562-8.782-10.636-12.077-14.888 0 0-2.112-2.842-4.42-5.851l-.395-.514c-1.589-2.062-3.227-4.124-4.282-5.328a23.068 23.068 0 0 0-8.17-6.265 16.646 16.646 0 0 0-9.403-.986v-.267c7.686-2.684 16.892-.483 21.914 4.41h-.05Z" clip-rule="evenodd"></path>
    <path fill="#FFFFFF" d="m8.954 64.133 2.564-5.68h.086l2.556 5.68h-1.045l-.423-.984h-2.305l-.423.984h-1.01Zm1.761-1.796h1.667l-.83-1.942-.837 1.942Zm7.326-1.174c.467.104 1.028.423 1.028 1.381 0 1.442-1.45 1.589-2.297 1.589H15.02v-5.594h1.424c1.105 0 2.297.138 2.297 1.528 0 .638-.346.966-.7 1.096Zm-.285-1.045c0-.733-.664-.768-1.32-.768h-.44v1.537h.422c.674 0 1.338-.052 1.338-.769Zm-.992 3.186c.682 0 1.312-.095 1.312-.812 0-.716-.622-.802-1.287-.802h-.794v1.614h.769Zm5.92.916c-1.76 0-2.823-1.235-2.823-2.884 0-1.675 1.088-2.884 2.858-2.884 1.761 0 2.814 1.209 2.814 2.858 0 1.657-1.07 2.91-2.849 2.91Zm.026-.907c1.08 0 1.83-.82 1.83-1.986 0-1.183-.776-1.977-1.838-1.977s-1.848.794-1.848 1.968c0 1.166.769 1.995 1.856 1.995Zm8.58.907-3.686-3.653v3.566h-.95v-5.68h.087l3.686 3.651v-3.566h.95v5.681h-.086Zm6.105 0-3.687-3.653v3.566h-.95v-5.68h.087l3.686 3.651v-3.566h.95v5.681h-.086Zm1.467-.087v-5.594h3.376v.828h-2.4v1.503h1.727v.82h-1.727v1.605h2.504v.838h-3.48Zm7.328.087-1.648-3.143-.553 3.056h-.975l1.122-5.68h.086l2.012 3.884 2.003-3.885h.086l1.123 5.68h-.959l-.57-3.064-1.64 3.151h-.086Zm4.307-.087v-5.594h3.376v.828h-2.4v1.503H53.2v.82h-1.727v1.605h2.504v.838h-3.48Zm9.113.087-3.686-3.653v3.566h-.95v-5.68h.087l3.686 3.651v-3.566h.95v5.681h-.087Zm2.711-.087v-4.766h-1.588v-.828h4.144v.828h-1.58v4.766h-.976Z"></path>
  </g>
  <defs>
    <clipPath id="a">
      <path fill="#fff" d="M0 0h74v74H0z"></path>
    </clipPath>
  </defs>
</svg>