<svg xmlns:xlink="http://www.w3.org/1999/xlink" xmlns="http://www.w3.org/2000/svg" width="24" height="24" viewBox="0 0 24 24" fill="currentColor"><path d="m12 7.5-2.02 8h1.04l2-8H12ZM8 7c-.6 0-2 .24-2 2.5S7.4 12 8 12c.6 0 2-.24 2-2.5S8.6 7 8 7Zm0 4c-.3 0-1 0-1-1.5S7.7 8 8 8c.3 0 1 0 1 1.5S8.3 11 8 11ZM15 11c-.6 0-2 .24-2 2.5s1.4 2.5 2 2.5c.6 0 2-.24 2-2.5S15.6 11 15 11Zm0 4c-.3 0-1 0-1-1.5s.7-1.5 1-1.5c.3 0 1 0 1 1.5s-.7 1.5-1 1.5Z" fill="#FFFFFF"></path><path d="M11.7 2H2v9.7l11 11.01L22.7 13l-11-11ZM3 11.3V3h8.3l10 10-8.3 8.3-10-10Z" fill="#FFFFFF"></path><path d="M5.5 6.25a.75.75 0 1 0 0-1.5.75.75 0 0 0 0 1.5Z" fill="#FFFFFF"></path></svg>