<svg xmlns:xlink="http://www.w3.org/1999/xlink" xmlns="http://www.w3.org/2000/svg" width="32" height="32" viewBox="0 0 32 32" fill="currentColor"><path d="M5.04 17.73h-1c.03.55.09 1.1.2 1.62l.97-.26a11 11 0 0 1-.17-1.36ZM5.21 14.86l-.97-.26c-.1.53-.17 1.08-.2 1.63h1c.03-.47.08-.92.17-1.37ZM5.6 20.54l-.97.26c.17.52.38 1.03.63 1.51l.86-.5c-.2-.4-.37-.83-.52-1.27ZM6.14 12.15l-.87-.5c-.24.49-.45.99-.63 1.5l.97.27c.15-.44.33-.86.53-1.27ZM7.73 9.77l-.7-.7c-.37.4-.7.82-1.01 1.28l.87.5c.25-.38.54-.74.84-1.08ZM6.86 23.12l-.86.5c.3.45.64.88 1 1.3l.7-.71c-.3-.35-.58-.71-.84-1.1ZM13.88 27.8l-.26.96a12 12 0 0 0 1.63.2v-1c-.46-.03-.92-.08-1.37-.17ZM28 17c0-5.65-3.92-10.38-9.19-11.65l-.3.95A11.01 11.01 0 0 1 27 17a11 11 0 0 1-10.25 10.96v1A12 12 0 0 0 28 17ZM11.16 26.86l-.5.87c.49.24.99.46 1.51.63l.26-.97a10.9 10.9 0 0 1-1.27-.53ZM8.77 25.27l-.7.7c.4.37.83.71 1.29 1.01l.5-.86c-.39-.26-.75-.55-1.1-.85ZM12.27 6.66l-1.41 2.55 1.4-.45L14 5.6l-3.05-1.69-1.3.42 2.4 1.34A11.99 11.99 0 0 0 8.1 8l.7.7a11 11 0 0 1 3.48-2.04ZM16.5 2h-1v14h1V2Z" fill="#17171A"></path></svg>