<svg xmlns:xlink="http://www.w3.org/1999/xlink" xmlns="http://www.w3.org/2000/svg" width="32" height="32" viewBox="0 0 32 32" fill="currentColor"><path d="M16 2.45 4 8.19v15.63l12 5.73 12-5.73V8.19L16 2.45Zm0 1.1L26.34 8.5l-4.2 2.01L11.8 5.57 16 3.55Zm-5.36 2.57 10.34 4.95L16 13.45 5.66 8.5l4.98-2.38ZM27 23.18l-10.5 5.03V25h-1v3.2L5 23.19V9.3l10.5 5.03V17h1v-2.68l5-2.4v3.33l1-.5v-3.3L27 9.29v13.9Z" fill="#17171A"></path><path d="M8.81 18.46V23h.96v-1.82h1.34v-.79H9.77v-1.14h1.87v-.79H8.81ZM15.84 19.95c0-1.28-.99-1.49-1.9-1.49h-1.39V23h.96v-1.55h.47l.97 1.55h1.16l-1.15-1.7c.46-.17.88-.59.88-1.35Zm-2.02.72h-.3v-1.44h.3c.49 0 1.03.08 1.03.72 0 .62-.48.72-1.03.72ZM17.91 21.08h1.3v-.8h-1.3v-1.03h1.85v-.79h-2.8V23h2.89v-.8H17.9v-1.12ZM21.77 19.25h1.85v-.79h-2.8V23h2.89v-.8h-1.94v-1.12h1.3v-.8h-1.3v-1.03Z" fill="#17171A"></path></svg>