<svg xmlns:xlink="http://www.w3.org/1999/xlink" xmlns="http://www.w3.org/2000/svg" width="32" height="32" viewBox="0 0 32 32" fill="currentColor"><path d="m8.06 10.5-2.12 18h20.12l-2.12-18H19v-3h4.86l1.33-4H6.81l1.33 4H13v3H8.06Zm.8-4-.67-2h15.62l-.67 2H8.86Zm9.14 1v3h-4v-3h4Zm5.06 4 1.88 16H7.06l1.88-16h14.12Z" fill="#17171A"></path><path d="M16 25.5a6 6 0 1 0-.01-12.01A6 6 0 0 0 16 25.5Zm0-11a5 5 0 1 1-.01 10.01A5 5 0 0 1 16 14.5Z" fill="#17171A"></path><path d="M16 20.25a.74.74 0 0 0 .5-1.3V16h-1v2.95a.74.74 0 0 0-.25.55c0 .41.34.75.75.75Z" fill="#17171A"></path></svg>