<svg xmlns:xlink="http://www.w3.org/1999/xlink" xmlns="http://www.w3.org/2000/svg" width="32" height="32" viewBox="0 0 32 32" fill="currentColor"><path d="m28.82 23.08-1.28-.6.97 2.67-3.51-1.6v-11l-8.5-4V5.5l2 2V6.08L16 3.58l-2.5 2.5V7.5l2-2v3.05l-8.5 4v11l-3.51 1.6.97-2.66-1.28.6-1.21 3.32 3.32 1.2 1.28-.6-2.65-.96 3.58-1.64 8.5 4 8.5-4 3.58 1.64-2.65.97 1.28.6 3.32-1.21-1.2-3.33Zm-13.32 4L8 23.54v-9.9l7.5 3.53v9.9ZM8.67 12.85 16 9.42l7.33 3.44L16 16.31l-7.33-3.45ZM24 23.55l-7.5 3.52v-9.89l7.5-3.53v9.9Z" fill="#17171A"></path></svg>