<svg xmlns:xlink="http://www.w3.org/1999/xlink" xmlns="http://www.w3.org/2000/svg" width="32" height="32" viewBox="0 0 32 32" fill="currentColor"><path d="m8.38 25.2-.7.7c.44.38.92.72 1.44 1.02l.5-.85a8.65 8.65 0 0 1-1.24-.87ZM6.46 22.9l-.86.5c.3.51.64 1 1.02 1.44l.7-.7c-.32-.38-.6-.8-.86-1.24ZM7.34 8.94l-.7-.7c-.38.45-.72.92-1.02 1.44l.86.5c.25-.45.54-.86.86-1.24ZM12.4 5.95 11 8.47l1.4-.45 1.59-2.85-3.05-1.7-1.3.43 2.14 1.19c-1.59.43-2.95 1.14-4.08 2.1l.7.7a9.7 9.7 0 0 1 4-1.94ZM5.38 20.15l-.96.26c.14.57.32 1.1.53 1.63l.87-.5c-.17-.45-.32-.9-.44-1.4ZM10.98 26.71l-.5.87c.51.2 1.05.39 1.63.53l.25-.96a11.2 11.2 0 0 1-1.38-.44ZM5.01 17.28h-1c.03.57.07 1.12.14 1.65l.97-.27c-.05-.44-.09-.9-.1-1.38ZM5.13 14.4l-.97-.26c-.08.52-.12 1.07-.14 1.64h1c.01-.48.05-.94.1-1.38ZM5.83 11.53l-.86-.5c-.21.52-.4 1.06-.54 1.63l.96.25c.12-.48.27-.94.44-1.38ZM13.85 27.41l-.26.98c.53.07 1.08.11 1.65.14v-1c-.48-.02-.95-.06-1.4-.12ZM27.99 16.55c0-6.56-3.25-10.7-9-11.73v1.01c5.18 1 8 4.7 8 10.72 0 6.84-3.64 10.7-10.25 10.98v1c7.15-.29 11.25-4.6 11.25-11.98Z" fill="#17171A"></path><path d="M18.99 21.55c0-1.26-.5-1.98-1-2.37v-8.63c0-.36-.1-.7-.28-1a2 2 0 0 0-1.72-1 2 2 0 0 0-1.73 1c-.17.3-.27.64-.27 1v8.63c-.5.4-1 1.1-1 2.37a3.64 3.64 0 0 0 .42 1.71c.28.49.71.85 1.27 1.06a4.01 4.01 0 0 0 2.06.16c1.42-.27 2.25-1.31 2.25-2.93Zm-2.25 1.9a2.83 2.83 0 0 1-1.8-.1c-.63-.3-.95-.89-.95-1.8 0-.8.25-1.38.76-1.7l.24-.14v-9.16a1 1 0 0 1 2 0v9.16l.23.15c.51.31.77.88.77 1.7 0 1.04-.43 1.67-1.25 1.9Z" fill="#17171A"></path><path d="M15.99 22.3a.75.75 0 1 0 0-1.5.75.75 0 0 0 0 1.5Z" fill="#17171A"></path></svg>