<svg xmlns:xlink="http://www.w3.org/1999/xlink" xmlns="http://www.w3.org/2000/svg" width="32" height="32" viewBox="0 0 32 32" fill="currentColor"><path d="M25 19.54v-8h4v-3.5c0-2.29-1.21-3.5-3.5-3.5H25v-.5c0-.83-.67-1.5-1.5-1.5h-14c-.83 0-1.5.67-1.5 1.5v1.5H1v19h2.82l.5-1H2v-17h6v7.27c.32-.08.65-.15 1-.2V4.04c0-.27.22-.5.5-.5h14c.28 0 .5.23.5.5v19.5h-8.32l.5 1h9.44L31 21.85v-2.31h-6Zm0-14h.5c1.73 0 2.5.77 2.5 2.5v2.5h-3v-5Zm5 15.7-4.62 2.3H25v-3h5v.7Z" fill="#17171A"></path><path d="M14.9 19.54c0-3.13-1.85-5-4.95-5S5 16.4 5 19.54c0 1.26.32 2.31.88 3.12l-2.34 4.68 1.05.58 1.34-.3.5 1.33.92.5 2.46-4.92.14.01.23-.02 2.37 4.75 1.1-.56.42-1.09 1.22.28 1.16-.58-2.37-4.73c.53-.8.82-1.83.82-3.05Zm-7.83 8.25-.5-1.33-1.65.37 1.69-3.38c.57.48 1.28.82 2.14.98l-1.68 3.36Zm2.88-4.25c-2.55 0-3.95-1.42-3.95-4s1.4-4 3.95-4c2.55 0 3.95 1.42 3.95 4s-1.4 4-3.95 4Zm5.13 3.29-1.65-.37-.5 1.33-1.69-3.38a4.52 4.52 0 0 0 2.13-1.01l1.71 3.43Z" fill="#17171A"></path><path d="M9.47 20.3 8.35 19.2l-.7.7 1.88 1.9 2.85-3.43-.76-.64-2.15 2.58Z" fill="#17171A"></path></svg>