<svg width="20" height="29" viewBox="0 0 20 29" version="1.1" xmlns="http://www.w3.org/2000/svg" xmlns:xlink="http://www.w3.org/1999/xlink">
                        <g id="Navigatie-(desktop)" stroke="none" stroke-width="1" fill="none" fill-rule="evenodd">
                            <g id="1.0---Home---Hero-A-(Desktop)-" transform="translate(-838.000000, -360.000000)" fill="#26211E" fill-rule="nonzero">
                                <path d="M848,360.375 C853.159452,360.375 857.625,365.129772 857.625,370.230769 C857.625,373.497356 854.568377,378.513353 848.468266,385.413946 L848.468266,385.413946 L848,385.943661 L847.176414,385.010202 C841.312931,378.31732 838.375,373.433305 838.375,370.230769 C838.375,365.129772 842.840548,360.375 848,360.375 Z M848,361.625 C843.549049,361.625 839.625,365.803201 839.625,370.230769 C839.625,372.969993 842.34205,377.536163 847.787801,383.809381 L847.787801,383.809381 L848,384.052 L848.54915,383.41936 C853.661212,377.473188 856.265275,373.098433 856.371605,370.400759 L856.371605,370.400759 L856.375,370.230769 C856.375,365.803201 852.450951,361.625 848,361.625 Z M848,364.375 C851.106602,364.375 853.625,366.893398 853.625,370 C853.625,373.106602 851.106602,375.625 848,375.625 C844.893398,375.625 842.375,373.106602 842.375,370 C842.375,366.893398 844.893398,364.375 848,364.375 Z M848,365.625 C845.583754,365.625 843.625,367.583754 843.625,370 C843.625,372.416246 845.583754,374.375 848,374.375 C850.416246,374.375 852.375,372.416246 852.375,370 C852.375,367.583754 850.416246,365.625 848,365.625 Z M840,388 L856,388 L856,389 L840,389 L840,388 Z" id="Combined-Shape-Copy-14" fill="#26211E"></path>
                            </g>
                        </g>
                    </svg>