<svg width="24" height="24" viewBox="0 0 24 24" version="1.1" xmlns="http://www.w3.org/2000/svg" xmlns:xlink="http://www.w3.org/1999/xlink">
                        <g id="Navigatie-(desktop)" stroke="none" stroke-width="1" fill="none" fill-rule="evenodd">
                            <g id="1.0---Home---Hero-A-(Desktop)-" transform="translate(-585.000000, -362.000000)" fill="#000000" fill-rule="nonzero">
                                <g id="noun-calendar-1585332-copy-2" transform="translate(585.000000, 362.000000)">
                                    <path d="M22.2847686,2.85656164 L20.5707784,2.85656164 L20.5707784,1.14249593 C20.5707784,0.51290951 20.0581214,0 19.4283328,0 L17.1425682,0 C16.5130095,0 16.0001226,0.51267965 16.0001226,1.14249593 L16.0001226,2.85656164 L7.99950965,2.85656164 L7.99950965,1.14249593 C7.99950965,0.51290951 7.48685259,0 6.85706405,0 L4.57042599,0 C3.9408673,0 3.42798039,0.51267965 3.42798039,1.14249593 L3.42798039,2.85656164 L1.71399019,2.85656164 C0.768893656,2.85656164 0,3.62567306 0,4.57062735 L0,22.2859343 C0,23.2310725 0.769077536,24 1.71399019,24 L22.2860098,24 C23.2311063,24 24,23.2308886 24,22.2859343 L24,4.57062735 C24,3.62548917 23.2309225,2.85637775 22.2847686,2.85637775 L22.2847686,2.85656164 Z M17.1425682,1.14249593 L19.4283328,1.14249593 L19.4283328,4.57081123 L17.1425682,4.57081123 L17.1425682,1.14249593 Z M4.57024211,1.14249593 L6.85600674,1.14249593 L6.85600674,4.57081123 L4.57024211,4.57081123 L4.57024211,1.14249593 Z M22.8568189,22.2859343 C22.8568189,22.6012746 22.6002099,22.8577339 22.2848606,22.8577339 L1.71422004,22.8577339 C1.39889366,22.8577339 1.1424456,22.6012976 1.1424456,22.2859343 L1.1424456,9.71443348 L22.8568189,9.71443348 L22.8568189,22.2859343 Z M22.856635,8.57156977 L1.14226172,8.57156977 L1.14226172,4.57058137 C1.14226172,4.25524109 1.39868679,3.99878174 1.71403616,3.99878174 L3.42802636,3.99878174 L3.42802636,5.71395078 L7.99950965,5.71395078 L7.99950965,3.99988507 L15.9992032,3.99988507 L15.9993828,5.71395078 L20.5708661,5.71395078 L20.5708661,3.99988507 L22.2848563,3.99988507 C22.6001827,3.99988507 22.856635,4.25632144 22.856635,4.5716847 L22.856635,8.57156977 Z" id="Shape"></path>
                                    <polygon id="Path" points="13.3077536 12.5720525 15.5935182 12.5720525 15.5935182 13.7145484 13.3077536 13.7145484"></polygon>
                                    <polygon id="Path" points="17.8794667 12.5720525 20.1652314 12.5720525 20.1652314 13.7145484 17.8794667 13.7145484"></polygon>
                                    <polygon id="Path" points="8.73650015 15.4282923 11.0222648 15.4282923 11.0222648 16.5707882 8.73650015 16.5707882"></polygon>
                                    <polygon id="Path" points="13.3077536 15.4282923 15.5935182 15.4282923 15.5935182 16.5707882 13.3077536 16.5707882"></polygon>
                                    <polygon id="Path" points="17.8794667 15.4282923 20.1652314 15.4282923 20.1652314 16.5707882 17.8794667 16.5707882"></polygon>
                                    <polygon id="Path" points="8.73650015 18.2859113 11.0222648 18.2859113 11.0222648 19.4284072 8.73650015 19.4284072"></polygon>
                                    <polygon id="Path" points="13.3077536 18.2859113 15.5935182 18.2859113 15.5935182 19.4284072 13.3077536 19.4284072"></polygon>
                                    <polygon id="Path" points="17.8794667 18.2859113 20.1652314 18.2859113 20.1652314 19.4284072 17.8794667 19.4284072"></polygon>
                                </g>
                            </g>
                        </g>
                    </svg>