<svg xmlns:xlink="http://www.w3.org/1999/xlink" xmlns="http://www.w3.org/2000/svg" width="24" height="24" viewBox="0 0 24 24" fill="currentColor"><path fill-rule="evenodd" d="M12.43 4c1.33 0 6.47.06 7.9.48.9.26 1.61 1.03 1.85 2.02.38 1.53.43 4.51.44 5.3v.4c0 .79-.06 3.77-.44 5.3a2.76 2.76 0 0 1-1.86 2.02c-.68.2-2.25.32-3.83.39l-.59.02c-1.57.06-3.05.07-3.58.07h-.4c-.53 0-2.01-.01-3.58-.07l-.6-.02a21.68 21.68 0 0 1-3.83-.39 2.76 2.76 0 0 1-1.85-2.02 30.3 30.3 0 0 1-.44-5.3v-.4c0-.79.06-3.77.44-5.3C2.3 5.5 3 4.74 3.9 4.48c1.43-.42 6.57-.47 7.9-.48h.62ZM9.97 8.62v6.76l5.5-3.38-5.5-3.38Z" clip-rule="evenodd" fill="#454547"></path></svg>