<svg width="27" height="18" viewBox="0 0 27 18" version="1.1" xmlns="http://www.w3.org/2000/svg" xmlns:xlink="http://www.w3.org/1999/xlink">
                                        <g id="Navigatie-(desktop)" stroke="none" stroke-width="1" fill="none" fill-rule="evenodd">
                                            <g id="1.0---Home---Hero-A-(Desktop)-" transform="translate(-210.000000, -1025.000000)" stroke="#282828" fill="none">
                                                <g id="Group-5" transform="translate(211.000000, 1026.000000)" stroke="#282828" fill="none">
                                                    <path d="M5,0 L5,16 L19.8939573,16 L24,12.110709 L19.2350691,12.110709 L19.2350691,7.0002129 L19.8939573,7.0002129 L19.8939573,4.65561605 L20.9258303,4.65561605 L21.6092503,5.30295934 L22.2009653,5.30295934 L22.2009653,2.6759938 C22.2621019,1.88521549 22.0648636,1.48982633 21.6092503,1.48982633 C21.6092503,1.48982633 21.1851043,1.48982633 20.3368124,1.48982633 L20.3368124,0 L5,0 Z" id="Path-3" stroke="#282828" fill="none"></path>
                                                    <path d="M5,1 L0.0349885602,1 C-0.0753960605,1.60599277 0.0754067846,1.90898915 0.487397096,1.90898915 C0.487397096,1.90898915 0.487397096,6.60599277 0.487397096,16 L5,16" id="Path-5" stroke="#282828" fill="none"></path>
                                                    <line x1="19.7811222" y1="2.36814767" x2="11.8070978" y2="2.36814767" id="Path-6" stroke="#282828" fill="none"></line>
                                                    <circle id="Oval" cx="14.5" cy="2.5" r="1" stroke="#282828" fill="none"></circle>
                                                </g>
                                            </g>
                                        </g>
                                    </svg>