<svg xmlns:xlink="http://www.w3.org/1999/xlink" xmlns="http://www.w3.org/2000/svg" width="24" height="24" viewBox="0 0 24 24" fill="currentColor"><path d="M7.86 2.07a7.3 7.3 0 0 0-2.43.47A4.9 4.9 0 0 0 3.66 3.7a4.9 4.9 0 0 0-1.15 1.77 7.35 7.35 0 0 0-.46 2.43C2.01 8.96 2 9.3 2 12.02c0 2.71.02 3.06.07 4.12.05 1.07.22 1.8.47 2.43.26.66.6 1.21 1.16 1.77.55.55 1.11.9 1.77 1.15.64.24 1.36.41 2.43.46 1.06.04 1.4.05 4.12.05 2.71 0 3.06-.02 4.12-.07a7.32 7.32 0 0 0 2.43-.47 4.9 4.9 0 0 0 1.77-1.16 4.9 4.9 0 0 0 1.15-1.77c.24-.63.41-1.36.46-2.43.04-1.06.05-1.4.05-4.12 0-2.71-.02-3.05-.07-4.12a7.3 7.3 0 0 0-.47-2.43 4.9 4.9 0 0 0-1.16-1.77 4.88 4.88 0 0 0-1.77-1.15 7.32 7.32 0 0 0-2.43-.46C15.04 2.01 14.7 2 11.98 2c-2.71 0-3.05.02-4.12.07Zm.12 18.08c-.98-.04-1.5-.2-1.86-.34-.47-.18-.8-.4-1.15-.75a3.08 3.08 0 0 1-.75-1.15c-.14-.35-.3-.88-.35-1.85a70.65 70.65 0 0 1-.07-4.04c0-2.67 0-2.99.05-4.04.05-.98.2-1.5.34-1.86.18-.47.4-.8.75-1.15.35-.35.68-.57 1.15-.75.35-.14.88-.3 1.85-.35 1.06-.05 1.37-.06 4.04-.07 2.67 0 2.99 0 4.05.06.97.04 1.5.2 1.85.34.47.18.8.4 1.15.74.35.35.57.68.75 1.15.14.35.3.88.35 1.86.05 1.05.06 1.37.07 4.04 0 2.66 0 2.98-.05 4.04-.05.97-.2 1.5-.34 1.85-.18.47-.4.8-.75 1.15-.35.36-.68.57-1.15.75-.35.14-.88.3-1.85.35-1.06.05-1.37.06-4.04.07-2.67 0-2.99 0-4.04-.05m8.15-13.5a1.2 1.2 0 1 0 2.4 0 1.2 1.2 0 0 0-2.4 0Zm-9.26 5.36a5.13 5.13 0 1 0 10.26-.02 5.13 5.13 0 0 0-10.26.02Zm1.8 0a3.33 3.33 0 1 1 6.66-.02 3.33 3.33 0 0 1-6.66.02Z" fill="#454547"></path></svg>