<svg width="25" height="21" viewBox="0 0 25 21" version="1.1" xmlns="http://www.w3.org/2000/svg" xmlns:xlink="http://www.w3.org/1999/xlink">
                                        <g id="Navigatie-(desktop)" stroke="none" stroke-width="1" fill="none" fill-rule="evenodd">
                                            <g id="1.0---Home---Hero-A-(Desktop)-" transform="translate(-707.000000, -365.000000)" fill="#26211E" fill-rule="nonzero">
                                                <path d="M732,365 L732,385 L730.999,385 L730.517146,385.396834 L730.192,385 L708.808,385 L708.483054,385.39659 L708,385 L707,385 L707,365 L732,365 Z M716.997,375.026 L709.834,383.75 L729.164,383.75 L722.333,375.439 L719.962963,378 L716.997,375.026 Z M730.75,366.35 L723.19,374.514 L730.75,383.712 L730.75,366.35 Z M708.25,366.254 L708.25,383.709 L716.11,374.137 L708.25,366.254 Z M729.138,366.25 L710.012,366.25 L719.929,376.195 L729.138,366.25 Z" id="Combined-Shape-Copy-15" fill="#26211E"></path>
                                            </g>
                                        </g>
                                    </svg>