<svg xmlns:xlink="http://www.w3.org/1999/xlink" xmlns="http://www.w3.org/2000/svg" width="24" height="24" viewBox="0 0 24 24" fill="currentColor"><path d="m15.2 7-1.98-1.99A7 7 0 0 1 20 12h1a8 8 0 0 0-7.8-7.99l2-2.01h-1.4l-2.5 2.5L13.8 7h1.4ZM15.15 15.15c-1.25 1.24-2.42.87-2.8.5l-3-3c-.13-.14-.35-.5-.36-1.02 0-.6.3-1.21.86-1.78l.24-.23L7.84 4H3v.5C3 14.31 10.69 22 20.5 22h.5v-4.84l-5.62-2.25-.23.24ZM20 17.84v3.15A16.3 16.3 0 0 1 4 5h3.16l1.76 4.4c-1.36 1.55-1 3.22-.27 3.95l3 3c.73.73 2.4 1.1 3.96-.27L20 17.84Z" fill="#454547"></path></svg>