<svg width="23" height="30" viewBox="0 0 23 30" version="1.1" xmlns="http://www.w3.org/2000/svg" xmlns:xlink="http://www.w3.org/1999/xlink">
                        <g id="Navigatie-(desktop)" stroke="none" stroke-width="1" fill="none" fill-rule="evenodd">
                            <g id="1.0---Home---Hero-A-(Desktop)-" transform="translate(-1082.000000, -359.000000)" fill="#26211E" fill-rule="nonzero">
                                <path d="M1105,388.009239 L1082,388.009239 L1082,368.16606 L1089.69911,368.165451 C1087.77506,367.182721 1086.52599,366.282959 1085.93495,365.438864 C1084.56615,363.48402 1084.8462,360.886264 1086.62273,359.642325 C1088.39926,358.398385 1090.93613,359.023709 1092.30493,360.978552 C1092.69925,361.541704 1093.01668,362.388565 1093.26312,363.526635 C1093.50963,362.388565 1093.82706,361.541704 1094.22139,360.978552 C1095.59018,359.023709 1098.12706,358.398385 1099.90359,359.642325 C1101.68012,360.886264 1101.96017,363.48402 1100.59137,365.438864 C1100.00033,366.282959 1098.75125,367.182721 1096.8272,368.165451 L1105,368.16606 L1105,388.009239 Z M1093,379.079 L1083.25,379.079 L1083.25,386.76904 L1093,386.769 L1093,379.079 Z M1103.75,379.079 L1094,379.079 L1094,386.769 L1103.75,386.76904 L1103.75,379.079 Z M1092.382,369.406239 L1083.25,369.406259 L1083.25,378.095 L1093,378.095 L1093,369.884 L1092.62273,370.040466 L1092.645,369.517239 L1092.382,369.406239 Z M1103.75,369.406259 L1094.143,369.406239 L1094,369.466 L1094,378.095 L1103.75,378.095 L1103.75,369.406259 Z M1095.24533,361.695523 C1094.64374,362.554682 1094.21399,364.533398 1093.99796,367.578421 L1093.97307,367.948939 L1093.96285,368.126307 L1094.47987,367.89988 C1097.03179,366.759627 1098.68028,365.75715 1099.39784,364.936786 L1099.48991,364.826052 L1099.56743,364.721893 C1100.56411,363.298491 1100.36825,361.481687 1099.19224,360.658236 C1098.01623,359.834785 1096.242,360.27212 1095.24533,361.695523 Z M1087.33408,360.658236 C1086.15807,361.481687 1085.96221,363.298491 1086.95889,364.721893 L1087.03641,364.826052 C1087.69804,365.666301 1089.37853,366.707798 1092.04645,367.89988 L1092.56347,368.126307 L1092.55325,367.948939 C1092.34643,364.693486 1091.90664,362.589048 1091.28099,361.695523 C1090.28431,360.27212 1088.51009,359.834785 1087.33408,360.658236 Z" id="Combined-Shape-Copy-16" fill="#26211E"></path>
                            </g>
                        </g>
                    </svg>