<svg width="30" height="24" viewBox="0 0 30 24" version="1.1" xmlns="http://www.w3.org/2000/svg" xmlns:xlink="http://www.w3.org/1999/xlink">
                        <g id="Navigatie-(desktop)" stroke="none" stroke-width="1" fill="none" fill-rule="evenodd">
                            <g id="1.0---Home---Hero-A-(Desktop)-" transform="translate(-210.000000, -1025.000000)" fill="#26211E" fill-rule="nonzero">
                                <g id="Group-3-Copy-3" transform="translate(211.000000, 1026.000000)" fill="#26211E">
                                    <path d="M23.759252,0 C24.3115367,0 24.759252,0.44771525 24.759252,1 C24.759252,1.07142176 24.7516004,1.14263799 24.7364283,1.21242964 L24.0418752,4.40861315 C28.0201564,4.11963303 29.8863647,6.12671118 29.3066775,10.2432861 C28.5236661,15.8037426 26.6667066,18.5062977 24.2626027,18.6211723 L24.1015243,18.625 L20.9507588,18.625 L20.1712109,22.2124296 C20.0712787,22.6721181 19.6644598,23 19.1940346,23 L4.84109718,23 C4.35491922,23 3.93918772,22.6503294 3.85588542,22.1713412 L0.203711509,1.17134117 C0.109082391,0.627223747 0.473464661,0.109417363 1.01758209,0.0147882452 C1.07416518,0.0049477071 1.13149084,0 1.18892326,0 L23.759252,0 Z M23.448,1.25 L1.486,1.25 L5.051,21.75 L18.992,21.75 L22.5427588,5.412 L22.3912268,4.63671545 C22.5039717,4.61459753 22.6154293,4.59392348 22.7255941,4.5746904 L23.448,1.25 Z M23.7649261,5.68370524 L21.2217588,17.375 L24.1015243,17.375 C25.8033589,17.375 27.3446001,15.2124346 28.0688897,10.0689835 C28.5465234,6.67712854 27.2315407,5.28224944 23.7649261,5.68370524 Z" id="Combined-Shape" fill="#26211E"></path>
                                </g>
                            </g>
                        </g>
                    </svg>