<svg width="28" height="14" viewBox="0 0 28 14" version="1.1" xmlns="http://www.w3.org/2000/svg" xmlns:xlink="http://www.w3.org/1999/xlink">
                                        <g id="Navigatie-(desktop)" stroke="none" stroke-width="1" fill="none" fill-rule="evenodd">
                                            <g id="1.0---Home---Hero-A-(Desktop)-" transform="translate(-207.000000, -538.000000)" stroke="#000000" fill="none">
                                                <g id="Group-8-Copy-3" transform="translate(208.000000, 539.000000)" stroke="#000000" fill="none">
                                                    <path d="M2.234375,11.2941176 C2.38247055,4.83115022 5.27805832,1.06644434 10.9211383,0 C10.9211383,0 12.3847134,0 15.3118635,0 C20.7812601,1.33375888 23.6330348,5.09846477 23.8671875,11.2941176 C23.8671875,11.2941176 16.65625,11.2941176 2.234375,11.2941176 Z" id="Path-5" stroke="#000000" fill="none"></path>
                                                    <path d="M8.0234375,2.11764706 C6.12760417,3.8597244 5.1796875,6.68325381 5.1796875,10.5882353" id="Path-7" stroke="#000000" fill="none"></path>
                                                    <path d="M10.8671875,2.11764706 C9.91927083,4.32824423 9.4453125,7.15177364 9.4453125,10.5882353" id="Path-8" stroke="#000000" fill="none"></path>
                                                    <path d="M14.421875,2.11764706 C15.3697917,4.30734882 15.84375,7.13087824 15.84375,10.5882353" id="Path-9" stroke="#000000" fill="none"></path>
                                                    <path d="M17.9765625,2.82352941 C20.1986097,5.0052663 21.1184607,7.59350159 20.7361157,10.5882353" id="Path-10" stroke="#000000" fill="none"></path>
                                                    <polygon id="Path-12" stroke-width="0.8px" stroke-linejoin="round" points="2.63185718 11.2 0 11.2 0 12 26 12 26 11.2" stroke="#000000" fill="none"></polygon>
                                                </g>
                                            </g>
                                        </g>
                                    </svg>