<svg width="21" height="26" viewBox="0 0 21 26" version="1.1" xmlns="http://www.w3.org/2000/svg" xmlns:xlink="http://www.w3.org/1999/xlink">
                        <g id="Navigatie-(desktop)" stroke="none" stroke-width="1" fill="none" fill-rule="evenodd">
                            <g id="1.0---Home---Hero-A-(Desktop)-" transform="translate(-962.000000, -361.000000)" fill="#26211E" fill-rule="nonzero">
                                <path d="M964.229147,382.70165 C963.776759,383.724173 963.579983,384.870972 963.560666,386.279229 C963.555135,386.682407 963.201314,387.005053 962.770384,386.99994 C962.339454,386.994705 961.994599,386.663669 962.000064,386.260491 C962.024798,384.462121 962.415966,382.9163 963.159887,381.550512 C961.054425,378.517284 961.792088,373.217759 966.183426,369.972102 C967.972384,368.649875 969.502046,367.983421 972.243374,367.122017 C972.349282,367.088737 972.466155,367.052144 972.686863,366.983064 C972.865548,366.927088 972.996118,366.88599 973.124131,366.845338 C976.616197,365.736378 978.389886,364.65073 980.364105,361.880111 L980.991232,361 L981.648362,361.860736 C984.626998,365.762273 982.369222,376.931546 977.931264,381.0837 C973.743982,385.001322 967.756555,385.633988 964.229147,382.70165 Z M965.005378,381.380077 C965.00752,381.382091 965.009664,381.3841 965.01181,381.386109 C967.826838,384.019849 973.078978,383.558524 976.827708,380.051212 C980.435592,376.675675 982.501404,367.676225 980.912012,363.678242 C978.976886,366.054212 976.981565,367.162326 973.625751,368.228018 C973.49532,368.269438 973.362929,368.311109 973.182385,368.367668 C972.961125,368.436921 972.845227,368.473208 972.74026,368.506192 C970.155127,369.318516 968.767248,369.923197 967.150864,371.117873 C963.698863,373.669262 962.910468,377.645098 964.105863,380.134538 C964.291888,379.902374 964.490006,379.675558 964.700131,379.45362 C965.994255,378.086736 967.209754,377.257962 970.304066,375.426886 C974.140626,373.156582 975.740276,371.928107 977.048041,369.841581 C977.266043,369.493762 977.744141,369.377142 978.115902,369.581105 C978.487664,369.785068 978.61231,370.232377 978.394308,370.580197 C976.919322,372.93352 975.180138,374.269152 971.138307,376.660927 C968.08146,378.469832 966.152109,379.841094 965.005378,381.380077 Z" id="Shape-Copy-2" fill="#26211E"></path>
                            </g>
                        </g>
                    </svg>