<svg xmlns:xlink="http://www.w3.org/1999/xlink" xmlns="http://www.w3.org/2000/svg" width="24" height="24" viewBox="0 0 24 24" fill="currentColor"><path d="M12 2a10 10 0 0 0-3.65 19.3c-.09-.78-.16-2 .03-2.86l1.17-4.97s-.3-.6-.3-1.48c0-1.4.81-2.43 1.82-2.43.85 0 1.26.64 1.26 1.4 0 .86-.54 2.15-.83 3.34-.24 1 .5 1.8 1.48 1.8 1.78 0 3.15-1.87 3.15-4.56 0-2.4-1.72-4.07-4.18-4.07a4.33 4.33 0 0 0-4.52 4.34c0 .85.33 1.77.74 2.28.08.1.1.18.07.28l-.28 1.14c-.04.18-.15.22-.34.13-1.23-.6-2-2.42-2-3.88 0-3.15 2.28-6.05 6.6-6.05 3.46 0 6.16 2.47 6.16 5.78 0 3.44-2.17 6.22-5.18 6.22-1.01 0-1.97-.53-2.29-1.16l-.63 2.38a10.9 10.9 0 0 1-1.24 2.63A10 10 0 1 0 12 2Z" fill="#454547"></path></svg>