<svg xmlns:xlink="http://www.w3.org/1999/xlink" xmlns="http://www.w3.org/2000/svg" width="24" height="24" viewBox="0 0 24 24" fill="currentColor"><path d="M18.07 17.68c0 .49-.4.9-.89.9H6.83a.9.9 0 0 1-.9-.9V8.43h12.14v9.25ZM9.77 3.68a.2.2 0 0 1-.1.28.2.2 0 0 1-.27-.09L8.1 1.32a.2.2 0 0 1 .36-.19l1.3 2.55ZM14.53 3.8a.2.2 0 0 1-.28.07.2.2 0 0 1-.07-.28L15.6 1.1a.2.2 0 0 1 .28-.07c.1.05.14.18.08.28l-1.44 2.48ZM21.23 15.17a1.3 1.3 0 1 1-2.6 0v-5.7a1.3 1.3 0 1 1 2.6 0v5.7ZM5.37 15.17a1.3 1.3 0 0 1-2.6 0v-5.7a1.3 1.3 0 1 1 2.6 0v5.7Z" fill="#17171A"></path><path d="M11.05 21.7a1.3 1.3 0 0 1-2.6 0V16a1.3 1.3 0 1 1 2.6 0v5.7ZM15.57 21.7a1.3 1.3 0 0 1-2.6 0V16a1.3 1.3 0 0 1 2.6 0v5.7ZM12 2.33a6.2 6.2 0 0 0-6.13 5.52h12.26A6.19 6.19 0 0 0 12 2.33ZM9.24 5.67a.51.51 0 1 1 0-1.01.51.51 0 0 1 0 1.01Zm5.54 0a.5.5 0 1 1 0-1.01.5.5 0 0 1 0 1.01Z" fill="#17171A"></path></svg>